# xmcd CD database file
#
# Track frame offsets:
#	150
#	21330
#	42027
#	61272
#
# Disc length: 1098 seconds
#
# Revision: 0
# Processed by: cddbd v1.5.1PL0 Copyright (c) Steve Scherf et al.
# Submitted via: CDex 1.40Beta9
#
DISCID=2a044804
DTITLE=中林 芽依 - Sympathy
DYEAR=2005
DGENRE=J-Pop
TTITLE0=Sympathy
TTITLE1=Can't Get'em Enough
TTITLE2=Papa Don't Preach
TTITLE3=Sympathy (Instrumental)
EXTD=YEAR: 2005/08/03
EXTT0=
EXTT1=
EXTT2=
EXTT3=
PLAYORDER=
